<svg
  width="20"
  height="20"
  viewBox="0 0 20 20"
  fill="none"
  xmlns="http://www.w3.org/2000/svg"
>
  <path
    d="M1 11.4286H19C19.552 11.4286 20 10.7886 20 10C20 9.21143 19.552 8.57143 19 8.57143H1C0.448 8.57143 0 9.21143 0 10C0 10.7886 0.448 11.4286 1 11.4286ZM1 2.85714H19C19.552 2.85714 20 2.21714 20 1.42857C20 0.64 19.552 0 19 0H1C0.448 0 0 0.64 0 1.42857C0 2.21714 0.448 2.85714 1 2.85714ZM1 20H19C19.552 20 20 19.36 20 18.5714C20 17.7829 19.552 17.1429 19 17.1429H1C0.448 17.1429 0 17.7829 0 18.5714C0 19.36 0.448 20 1 20Z"
    fill="white"
  />
</svg>
