<svg
  width="20"
  height="20"
  viewBox="0 0 20 20"
  fill="none"
  xmlns="http://www.w3.org/2000/svg"
>
  <path
    d="M17 3.63636H3.00002L4.50002 1.81818H15.5L17 3.63636ZM19.794 3.99273L16.8 0.363636C16.604 0.126364 16.306 0.000909091 16 0H4.00002C3.67402 0 3.38402 0.141818 3.20002 0.363636L0.206024 3.99273C0.163024 4.04364 0.125023 4.09909 0.0950235 4.15818C0.0300235 4.28273 -0.00097657 4.41545 2.34299e-05 4.54545V17.2727C2.34299e-05 18.0255 0.337023 18.7091 0.879023 19.2009C1.42102 19.6927 2.17202 20 3.00002 20H17C17.828 20 18.58 19.6936 19.121 19.2009C19.662 18.7082 20 18.0255 20 17.2727V4.54545C20 4.34636 19.929 4.16182 19.811 4.01364C19.807 4.00909 19.804 4.00455 19.8 4L19.794 3.99273ZM2.00002 5.45455H18V17.2727C18 17.5236 17.889 17.75 17.707 17.9155C17.525 18.0809 17.276 18.1818 17 18.1818H3.00002C2.72402 18.1818 2.47502 18.0809 2.29302 17.9155C2.11102 17.75 2.00002 17.5236 2.00002 17.2727V5.45455ZM13 8.18182C13 8.93545 12.665 9.61545 12.121 10.11C11.577 10.6045 10.829 10.9091 10 10.9091C9.17102 10.9091 8.42302 10.6045 7.87902 10.11C7.33502 9.61545 7.00002 8.93545 7.00002 8.18182C7.00002 7.68 6.55202 7.27273 6.00002 7.27273C5.44802 7.27273 5.00002 7.68 5.00002 8.18182C5.00002 9.43636 5.56102 10.5745 6.46402 11.3964C7.36702 12.2182 8.62002 12.7273 10 12.7273C11.38 12.7273 12.632 12.2173 13.536 11.3964C14.44 10.5755 15 9.43636 15 8.18182C15 7.68 14.552 7.27273 14 7.27273C13.448 7.27273 13 7.68 13 8.18182Z"
    fill="white"
  />
</svg>
